<svg width="722" height="283" xmlns="http://www.w3.org/2000/svg" xmlns:xlink="http://www.w3.org/1999/xlink" overflow="hidden"><defs><clipPath id="clip0"><rect x="300" y="261" width="722" height="283"/></clipPath></defs><g clip-path="url(#clip0)" transform="translate(-300 -261)"><rect x="531" y="263" width="218" height="54" stroke="#000000" stroke-width="2" stroke-miterlimit="8" fill="#FFFFFF"/><text font-family="Times New Roman,Times New Roman_MSFontService,sans-serif" font-weight="400" font-size="25" transform="translate(542.75 299)">Driving<tspan font-size="25" x="85.1666" y="0">experienc</tspan><tspan font-size="25" x="183.333" y="0">e</tspan></text><rect x="302" y="350" width="161" height="54" stroke="#000000" stroke-width="2" stroke-miterlimit="8" fill="#FFFFFF"/><text font-family="Times New Roman,Times New Roman_MSFontService,sans-serif" font-weight="400" font-size="25" transform="translate(349.608 385)">Desire</text><rect x="302" y="290" width="161" height="54" stroke="#FFFFFF" stroke-width="2" stroke-miterlimit="8" fill="#FFFFFF"/><text font-family="Times New Roman,Times New Roman_MSFontService,sans-serif" font-weight="400" font-size="25" transform="translate(340.442 326)">Intrinsic</text><rect x="302" y="486" width="161" height="54" stroke="#000000" stroke-width="2" stroke-miterlimit="8" fill="#FFFFFF"/><text font-family="Times New Roman,Times New Roman_MSFontService,sans-serif" font-weight="400" font-size="25" transform="translate(328.858 522)">App usage</text><rect x="302" y="426" width="161" height="55" stroke="#FFFFFF" stroke-width="2" stroke-miterlimit="8" fill="#FFFFFF"/><text font-family="Times New Roman,Times New Roman_MSFontService,sans-serif" font-weight="400" font-size="25" transform="translate(336.942 462)">Extrinsi<tspan font-size="25" x="80.1667" y="0">c</tspan></text><rect x="780" y="415" width="239" height="54" stroke="#000000" stroke-width="2" stroke-miterlimit="8" fill="#FFFFFF"/><text font-family="Times New Roman,Times New Roman_MSFontService,sans-serif" font-weight="400" font-size="25" transform="translate(792.718 451)">Driving<tspan font-size="25" x="85.1667" y="0">performance</tspan></text><rect x="790" y="349" width="218" height="55" stroke="#FFFFFF" stroke-width="2" stroke-miterlimit="8" fill="#FFFFFF"/><text font-family="Times New Roman,Times New Roman_MSFontService,sans-serif" font-weight="400" font-size="25" transform="translate(803.385 385)">Behavior changing</text><path d="M463.203 376.021 773.023 440.233 772.618 442.192 462.797 377.979ZM772.327 437.025 779.349 442.566 770.703 444.859Z"/><path d="M0.218682-0.975796 310.062 68.4622 309.625 70.4138-0.218682 0.975796ZM309.417 65.2432 316.349 70.8959 307.668 73.0496Z" transform="matrix(1 0 0 -1 463 512.896)"/><path d="M626 316 626 402.317 624 402.317 624 316ZM629 400.984 625 408.984 621 400.984Z"/><path d="M656 317 656 462.325 654 462.325 654 317ZM659 460.991 655 468.991 651 460.991Z"/></g></svg>