<svg width="658" height="256" xmlns="http://www.w3.org/2000/svg" xmlns:xlink="http://www.w3.org/1999/xlink" overflow="hidden"><defs><clipPath id="clip0"><rect x="312" y="262" width="658" height="256"/></clipPath></defs><g clip-path="url(#clip0)" transform="translate(-312 -262)"><rect x="313" y="323" width="162" height="55" stroke="#000000" stroke-width="2" stroke-miterlimit="8" fill="#FFFFFF"/><text font-family="Times New Roman,Times New Roman_MSFontService,sans-serif" font-weight="400" font-size="25" transform="translate(361.065 359)">Desire</text><rect x="313" y="264" width="162" height="54" stroke="#FFFFFF" stroke-width="2" stroke-miterlimit="8" fill="#FFFFFF"/><text font-family="Times New Roman,Times New Roman_MSFontService,sans-serif" font-weight="400" font-size="25" transform="translate(351.898 300)">Intrinsic</text><rect x="313" y="460" width="162" height="54" stroke="#000000" stroke-width="2" stroke-miterlimit="8" fill="#FFFFFF"/><text font-family="Times New Roman,Times New Roman_MSFontService,sans-serif" font-weight="400" font-size="25" transform="translate(340.315 496)">App usage</text><rect x="313" y="400" width="162" height="54" stroke="#FFFFFF" stroke-width="2" stroke-miterlimit="8" fill="#FFFFFF"/><text font-family="Times New Roman,Times New Roman_MSFontService,sans-serif" font-weight="400" font-size="25" transform="translate(348.398 436)">Extrinsi<tspan font-size="25" x="80.1667" y="0">c</tspan></text><rect x="728" y="389" width="239" height="54" stroke="#000000" stroke-width="2" stroke-miterlimit="8" fill="#FFFFFF"/><text font-family="Times New Roman,Times New Roman_MSFontService,sans-serif" font-weight="400" font-size="25" transform="translate(740.913 425)">Driving<tspan font-size="25" x="85.1667" y="0">performance</tspan></text><rect x="738" y="323" width="219" height="54" stroke="#FFFFFF" stroke-width="2" stroke-miterlimit="8" fill="#FFFFFF"/><text font-family="Times New Roman,Times New Roman_MSFontService,sans-serif" font-weight="400" font-size="25" transform="translate(751.58 359)">Behavior changing</text><path d="M475.251 349.032 721.885 412.981 721.383 414.917 474.749 350.968ZM721.347 409.742 728.087 415.622 719.339 417.486Z"/><path d="M0.269542-0.962988 246.937 68.0796 246.398 70.0056-0.269542 0.962988ZM246.461 64.8312 253.087 70.8395 244.305 72.5351Z" transform="matrix(1 0 0 -1 475 486.839)"/><path d="M593 320 593 373.913 591 373.913 591 320ZM596 372.579 592 380.579 588 372.579Z"/><path d="M628 318 628 436.547 626 436.547 626 318ZM631 435.213 627 443.213 623 435.213Z"/><rect x="531" y="266" width="162" height="54" stroke="#000000" stroke-width="2" stroke-miterlimit="8" fill="#FFFFFF"/><text font-family="Times New Roman,Times New Roman_MSFontService,sans-serif" font-weight="400" font-size="25" transform="translate(583.743 302)">Habit</text></g></svg>